<svg xmlns="http://www.w3.org/2000/svg" width="37.218" height="22" viewBox="0 0 37.218 22">
  <g id="Grupo_3905" data-name="Grupo 3905" transform="translate(-664 -23)">
    <g id="Grupo_3864" data-name="Grupo 3864" transform="translate(22 -359.027)">
      <path id="Caminho_1012" data-name="Caminho 1012" d="M652.032,396.589q-.6,1.8-1.943,1.8a1.514,1.514,0,0,1-1.169-.67,5.8,5.8,0,0,1-.919-1.825,15.968,15.968,0,0,1-.6-2.692,22.551,22.551,0,0,1-.223-3.243,20.8,20.8,0,0,1,.223-3.335,9.384,9.384,0,0,1,.578-2.153,2.8,2.8,0,0,1,.814-1.156,1.551,1.551,0,0,1,.932-.341,1.581,1.581,0,0,1,1.221.63,5.317,5.317,0,0,1,.919,1.773,14.281,14.281,0,0,1,.578,2.7,27.5,27.5,0,0,1,.2,3.427,16.681,16.681,0,0,1-.6,5.081m-9.507-2.1a7.447,7.447,0,0,0,1.523,2.665,6.666,6.666,0,0,0,2.416,1.694,8.258,8.258,0,0,0,3.2.591,8.982,8.982,0,0,0,3.572-.656,6.84,6.84,0,0,0,2.534-1.839,7.876,7.876,0,0,0,1.523-2.849,12.626,12.626,0,0,0,.512-3.716,11.532,11.532,0,0,0-.447-3.257,7.267,7.267,0,0,0-1.392-2.652,6.6,6.6,0,0,0-2.416-1.786,8.673,8.673,0,0,0-3.545-.656,8.791,8.791,0,0,0-3.178.565,6.889,6.889,0,0,0-2.547,1.694,7.859,7.859,0,0,0-1.681,2.81,11.467,11.467,0,0,0-.6,3.887,10.962,10.962,0,0,0,.525,3.506" fill="#fff"/>
      <path id="Caminho_1013" data-name="Caminho 1013" d="M929.621,391.118a3.773,3.773,0,0,0-1.077-1.5,5.071,5.071,0,0,0-1.891-.972,9.919,9.919,0,0,0-2.784-.341h-8.535v.866l1.5.158v14.26l-1.523.656v.736h8.561v-.814l-2.127-.079v-5.778a3.5,3.5,0,0,0,.683.2,4.673,4.673,0,0,0,.945.092,10.087,10.087,0,0,0,2.324-.276,6.149,6.149,0,0,0,2.114-.932,5.164,5.164,0,0,0,1.55-1.72,5.34,5.34,0,0,0,.6-2.666A5.118,5.118,0,0,0,929.621,391.118Zm-4.99,5.371a2.145,2.145,0,0,1-1.917,1.011,1.681,1.681,0,0,1-.5-.092,2.473,2.473,0,0,1-.473-.2v-7.984h.788a2.249,2.249,0,0,1,2.114,1.116,5.65,5.65,0,0,1,.643,2.85A6.271,6.271,0,0,1,924.631,396.489Z" transform="translate(-257.314 -5.913)" fill="#fff"/>
      <path id="Caminho_1014" data-name="Caminho 1014" d="M1117.736,592.63h-2.451l.4-2.651a1.082,1.082,0,0,0-1.082-1.082h-.266a1.082,1.082,0,0,0-1.082,1.082l-.4,2.651h-2.851a1.082,1.082,0,0,0-1.082,1.082v.266a1.082,1.082,0,0,0,1.082,1.082h2.451l-.4,2.651a1.082,1.082,0,0,0,1.082,1.082h.266a1.082,1.082,0,0,0,1.082-1.082l.4-2.651h2.851a1.082,1.082,0,0,0,1.082-1.082v-.266A1.082,1.082,0,0,0,1117.736,592.63Z" transform="translate(-439.6 -194.764)" fill="#fbb03b"/>
    </g>
  </g>
</svg>
